<svg width="24" height="24" viewBox="0 0 24 24" fill="none" xmlns="http://www.w3.org/2000/svg">
<path fill-rule="evenodd" clip-rule="evenodd" d="M7.00401 10.6245C7.19982 8.55914 8.94008 6.94294 11.0571 6.94294C13.0264 6.94294 14.6704 8.34177 15.0472 10.2004L15.1543 10.7285L15.693 10.7153C15.7191 10.7147 15.7452 10.7144 15.7714 10.7144C17.4992 10.7144 18.8999 12.1151 18.8999 13.8429L18.8999 14.7858C18.8999 16.3385 17.7689 17.627 16.2857 17.8723V19.1704C18.4813 18.9156 20.1856 17.0498 20.1856 14.7858L20.1856 13.8429C20.1856 11.5432 18.427 9.65421 16.1812 9.44743C15.511 7.2533 13.471 5.65723 11.0571 5.65723C8.38216 5.65723 6.16575 7.61724 5.76463 10.1798C4.58917 10.9719 3.81421 12.3166 3.81421 13.8429V14.7858C3.81421 17.0498 5.51861 18.9157 7.71429 19.1705V17.8723C6.23107 17.6271 5.09992 16.3385 5.09992 14.7858V13.8429C5.09992 12.6785 5.73578 11.6618 6.6823 11.1224L6.97249 10.957L7.00401 10.6245Z" fill="black"/>
<path fill-rule="evenodd" clip-rule="evenodd" d="M11.5382 16.3397L11.5382 19.8429L12.4618 19.8429L12.4618 16.3394L13.9827 17.8603L14.6359 17.2072L12.0001 14.5715L9.36441 17.2072L10.0175 17.8603L11.5382 16.3397Z" fill="black"/>
</svg>
