<svg width="24" height="24" viewBox="0 0 24 24" fill="none" xmlns="http://www.w3.org/2000/svg">
<path d="M4.45715 13.8428H5.20715V13.8428L4.45715 13.8428ZM6.36407 10.5638L6.73539 11.2154L7.07395 11.0225L7.11072 10.6345L6.36407 10.5638ZM15.6773 10.0725L14.9423 10.2215L15.0672 10.8377L15.6957 10.8223L15.6773 10.0725ZM19.5429 13.8608L18.7929 13.8573V13.8608H19.5429ZM5.20715 13.8428C5.20715 13.8428 5.20715 13.8428 5.20715 13.8428H3.70715C3.70715 13.8428 3.70715 13.8428 3.70715 13.8428L5.20715 13.8428ZM5.20715 13.8428C5.20715 12.7184 5.82097 11.7365 6.73539 11.2154L5.99274 9.91213C4.62923 10.6891 3.70715 12.1578 3.70715 13.8428H5.20715ZM7.11072 10.6345C7.30134 8.62361 8.9959 7.04993 11.0571 7.04993V5.54993C8.21495 5.54993 5.88035 7.71926 5.61741 10.493L7.11072 10.6345ZM11.0571 7.04993C12.9745 7.04993 14.5754 8.41188 14.9423 10.2215L16.4124 9.92352C15.9066 7.42836 13.702 5.54993 11.0571 5.54993V7.04993ZM15.6957 10.8223C15.7209 10.8217 15.7462 10.8214 15.7715 10.8214V9.32138C15.7338 9.32138 15.6963 9.32184 15.659 9.32276L15.6957 10.8223ZM15.7715 10.8214C17.4402 10.8214 18.7929 12.1741 18.7929 13.8428H20.2929C20.2929 11.3457 18.2686 9.32138 15.7715 9.32138V10.8214ZM18.7929 13.8428C18.7929 13.8476 18.7929 13.8524 18.7929 13.8573L20.2929 13.8642C20.2929 13.8571 20.2929 13.85 20.2929 13.8428H18.7929ZM18.7929 13.8608V14.7857H20.2929V13.8608H18.7929ZM18.7929 14.7857C18.7929 16.4544 17.4401 17.8071 15.7714 17.8071V19.3071C18.2686 19.3071 20.2929 17.2828 20.2929 14.7857H18.7929ZM15.7714 17.8071H8.22858V19.3071H15.7714V17.8071ZM8.22858 17.8071C6.55989 17.8071 5.20715 16.4544 5.20715 14.7857H3.70715C3.70715 17.2828 5.73146 19.3071 8.22858 19.3071V17.8071ZM5.20715 14.7857V13.8428H3.70715V14.7857H5.20715Z" fill="black"/>
<path fill-rule="evenodd" clip-rule="evenodd" d="M12.4132 14.147L12.4132 11.0142L11.5872 11.0142L11.5872 14.1473L10.227 12.7872L9.64294 13.3712L12.0001 15.7284L14.3572 13.3712L13.7731 12.7872L12.4132 14.147Z" fill="black"/>
</svg>
