<svg width="18" height="18" viewBox="0 0 18 18" fill="none" xmlns="http://www.w3.org/2000/svg">
<g id="Frame 1000007690">
<g id="Group 1000006872">
<path id="Rectangle 6044" d="M11 1H3C1.89543 1 1 1.89543 1 3V11C1 12.1046 1.89543 13 3 13H11C12.1046 13 13 12.1046 13 11V3C13 1.89543 12.1046 1 11 1Z" stroke="black" stroke-width="1.5"/>
<path id="Rectangle 6045" d="M14.5 5L15 5C16.1046 5 17 5.89543 17 7V15C17 16.1046 16.1046 17 15 17H13H7C5.89543 17 5 16.1046 5 15C5 14.833 5 14.665 5 14.5" stroke="black" stroke-width="1.5"/>
</g>
</g>
</svg>
