<svg width="28" height="28" viewBox="0 0 28 28" fill="none" xmlns="http://www.w3.org/2000/svg">
<path fill-rule="evenodd" clip-rule="evenodd" d="M19 16C20.2226 16 21.9054 15.7388 21.9835 14.5187C21.9944 14.3472 22 14.1742 22 14C22 9.58179 18.4183 6 14 6C9.58167 6 6 9.58179 6 14C6 18.4182 9.58167 22 14 22C14.1743 22 14.3473 21.9944 14.5188 21.9834C15.7389 21.9053 16 20.2226 16 19V19C16 17.3433 17.3431 16 19 16V16Z" stroke="black" stroke-width="1.5"/>
<circle cx="15" cy="9" r="1" fill="black"/>
<circle cx="11" cy="10" r="1" fill="black"/>
<circle cx="9" cy="13" r="1" fill="black"/>
<circle cx="10" cy="17" r="1" fill="black"/>
</svg>
