<svg width="24" height="24" viewBox="0 0 24 24" fill="none" xmlns="http://www.w3.org/2000/svg">
<path d="M15.4285 18.8571H5.14282V5.14282H15.4285V13.2857" stroke="black" stroke-width="1.5"/>
<path d="M8.57141 18.8571H15.4286H18.8571V7.71423H15.4286" stroke="black" stroke-width="1.5"/>
<path d="M15.3193 13.7999L15.9288 14.9525L16.5503 13.7999H17.4735L16.5141 15.4352L17.4977 17.0765H16.5805L15.9288 15.936L15.2891 17.0765H14.3599L15.3374 15.4352L14.3961 13.7999H15.3193Z" fill="black"/>
<path d="M13.2715 14.7714C13.2353 14.5421 13.0301 14.3913 12.7344 14.3913C12.4448 14.3913 12.2215 14.5301 12.2275 14.7292C12.2215 14.874 12.3422 14.9887 12.6499 15.055L13.2353 15.1757C13.8688 15.3085 14.1766 15.5921 14.1826 16.0628C14.1766 16.7084 13.5973 17.1429 12.7284 17.1429C11.8414 17.1429 11.3224 16.7446 11.25 16.105H12.1491C12.1913 16.3645 12.4025 16.4972 12.7284 16.4972C13.0542 16.4972 13.2715 16.3645 13.2715 16.1533C13.2715 15.9843 13.1327 15.8817 12.8249 15.8154L12.2819 15.7067C11.6603 15.5861 11.3345 15.2602 11.3405 14.7775C11.3345 14.1499 11.8776 13.7577 12.7223 13.7577C13.549 13.7577 14.0619 14.1499 14.1102 14.7714H13.2715Z" fill="black"/>
<path d="M10.8614 12.7078V17.0765H9.96838V12.7078H10.8614Z" fill="black"/>
<path d="M7.46164 13.7999L8.07109 14.9525L8.69262 13.7999H9.61585L8.65641 15.4352L9.63999 17.0765H8.72279L8.07109 15.936L7.43147 17.0765H6.5022L7.47974 15.4352L6.5384 13.7999H7.46164Z" fill="black"/>
<path d="M7.71423 7.71423H12.8571" stroke="black" stroke-width="1.28571"/>
<path d="M7.71423 7.71423H12.8571" stroke="black" stroke-width="1.28571"/>
<path d="M7.71423 10.2858H11.1428" stroke="black" stroke-width="1.28571"/>
</svg>
