<svg width="28" height="28" viewBox="0 0 28 28" fill="none" xmlns="http://www.w3.org/2000/svg">
<g clip-path="url(#clip0_11929_760486)">
<path d="M20 20.5V20.8C20 20.9105 19.9105 21 19.8 21H6.2C6.08954 21 6 20.9105 6 20.8V7.2C6 7.08954 6.08954 7 6.2 7H10.4298C10.4753 7 10.5193 7.01546 10.5548 7.04383L12.9452 8.95617C12.9807 8.98454 13.0247 9 13.0702 9H19.8C19.9105 9 20 9.08954 20 9.2V12" stroke="black" stroke-width="1.5"/>
<path d="M8.95442 12.1368C8.98164 12.0551 9.05807 12 9.14415 12H22.7225C22.859 12 22.9554 12.1337 22.9123 12.2632L20.0456 20.8632C20.0184 20.9449 19.9419 21 19.8558 21H6.27748C6.14097 21 6.04458 20.8663 6.08775 20.7368L8.95442 12.1368Z" stroke="black" stroke-width="1.5"/>
</g>
<defs>
<clipPath id="clip0_11929_760486">
<rect width="19" height="16" fill="white" transform="translate(5 6)"/>
</clipPath>
</defs>
</svg>
