<svg width="24" height="24" viewBox="0 0 24 24" fill="none" xmlns="http://www.w3.org/2000/svg">
<rect x="5.14282" y="5.14282" width="13.7143" height="13.7143" rx="6.85714" stroke="black" stroke-width="1.5"/>
<path d="M11.1678 13.7402C11.1796 12.2051 11.6366 11.7363 12.41 11.2559C12.9022 10.9512 13.2772 10.5293 13.2772 9.9082C13.2772 9.16992 12.7147 8.71289 12.0116 8.71289C11.3788 8.71289 10.7694 9.09961 10.7108 9.9668H9.44519C9.49207 8.47852 10.6171 7.6582 12.0116 7.6582C13.535 7.6582 14.5546 8.57227 14.5546 9.9082C14.5546 10.8457 14.1093 11.4785 13.3593 11.9355C12.6561 12.3574 12.3866 12.791 12.3632 13.7402V13.8105H11.1678V13.7402ZM11.8124 16.3418C11.3553 16.3418 10.9686 15.9668 10.9803 15.5098C10.9686 15.0527 11.3553 14.6777 11.8124 14.6777C12.2577 14.6777 12.6444 15.0527 12.6444 15.5098C12.6444 15.9668 12.2577 16.3418 11.8124 16.3418Z" fill="black"/>
</svg>
