<svg width="24" height="24" viewBox="0 0 24 24" fill="none" xmlns="http://www.w3.org/2000/svg">
<path d="M15.7739 11.5245C15.7739 9.89354 14.4518 8.57141 12.8209 8.57141C11.1899 8.57141 9.8678 9.89354 9.8678 11.5245" stroke="black" stroke-width="0.857143"/>
<path d="M8.7489 9.57251L9.6061 11.4766L11.5102 10.6194" stroke="black" stroke-width="0.857143"/>
<path d="M8.22583 12.4755C8.22583 14.1065 9.54796 15.4286 11.1789 15.4286C12.8098 15.4286 14.132 14.1065 14.132 12.4755" stroke="black" stroke-width="0.857143"/>
<path d="M15.2509 14.4275L14.3937 12.5234L12.4896 13.3806" stroke="black" stroke-width="0.857143"/>
<path d="M5.25973 10.0385L4.70208 9.71867L5.25973 10.0385ZM6.94249 16.895L6.38485 17.2149L6.94249 16.895ZM17.0593 16.8949L16.5017 16.5751L17.0593 16.8949ZM18.742 10.0385L18.1844 10.3584L18.742 10.0385ZM17.0594 7.10496L17.6171 6.78511L17.0594 7.10496ZM13.6775 4.49997H10.324V5.78568H13.6775V4.49997ZM19.2997 9.71867L17.6171 6.78511L16.5018 7.4248L18.1844 10.3584L19.2997 9.71867ZM18.1843 13.6414L16.5017 16.5751L17.6169 17.2148L19.2996 14.2811L18.1843 13.6414ZM10.324 19.5H13.6775V18.2143H10.324V19.5ZM4.70216 14.2811L6.38485 17.2149L7.50013 16.5752L5.81744 13.6414L4.70216 14.2811ZM5.81737 10.3584L7.50002 7.42472L6.38473 6.78502L4.70208 9.71867L5.81737 10.3584ZM7.81348 7.34073C8.83051 7.93178 10.089 7.18382 10.089 6.02453H8.8033C8.8033 6.20948 8.60471 6.31348 8.45951 6.2291L7.81348 7.34073ZM7.50002 7.42472C7.56314 7.31465 7.70378 7.27697 7.81348 7.34073L8.45951 6.2291C7.7334 5.80712 6.80258 6.05653 6.38473 6.78502L7.50002 7.42472ZM5.90425 10.6826C5.79104 10.6168 5.75224 10.4719 5.81737 10.3584L4.70208 9.71867C4.28507 10.4457 4.53359 11.3731 5.25823 11.7942L5.90425 10.6826ZM5.90429 13.3173C6.91512 12.7299 6.91498 11.2699 5.90425 10.6826L5.25823 11.7942C5.41613 11.886 5.41607 12.114 5.25827 12.2057L5.90429 13.3173ZM5.81744 13.6414C5.75232 13.5279 5.79112 13.3831 5.90429 13.3173L5.25827 12.2057C4.53363 12.6268 4.28517 13.5541 4.70216 14.2811L5.81744 13.6414ZM7.81354 16.6591C7.70386 16.7229 7.56325 16.6852 7.50013 16.5752L6.38485 17.2149C6.80268 17.9433 7.73348 18.1927 8.45957 17.7708L7.81354 16.6591ZM10.089 17.9754C10.089 16.8162 8.83061 16.0681 7.81354 16.6591L8.45957 17.7708C8.60468 17.6864 8.8033 17.7904 8.8033 17.9754H10.089ZM10.324 18.2143C10.198 18.2143 10.089 18.1089 10.089 17.9754H8.8033C8.8033 18.8114 9.48039 19.5 10.324 19.5V18.2143ZM13.9125 17.9753C13.9125 18.1088 13.8036 18.2143 13.6775 18.2143V19.5C14.5211 19.5 15.1982 18.8115 15.1982 17.9753H13.9125ZM16.1881 16.6591C15.171 16.068 13.9125 16.816 13.9125 17.9753H15.1982C15.1982 17.7903 15.3968 17.6863 15.5421 17.7707L16.1881 16.6591ZM16.5017 16.5751C16.4385 16.6852 16.2978 16.7229 16.1881 16.6591L15.5421 17.7707C16.2682 18.1927 17.1991 17.9433 17.6169 17.2148L16.5017 16.5751ZM18.0974 13.3173C18.2106 13.3831 18.2494 13.5279 18.1843 13.6414L19.2996 14.2811C19.7166 13.5541 19.4681 12.6268 18.7435 12.2057L18.0974 13.3173ZM18.0975 10.6826C17.0868 11.2699 17.0866 12.7299 18.0974 13.3173L18.7435 12.2057C18.5857 12.114 18.5856 11.886 18.7435 11.7942L18.0975 10.6826ZM18.1844 10.3584C18.2495 10.4719 18.2107 10.6168 18.0975 10.6826L18.7435 11.7942C19.4681 11.3731 19.7167 10.4457 19.2997 9.71867L18.1844 10.3584ZM16.1882 7.34077C16.2979 7.27699 16.4386 7.31469 16.5018 7.4248L17.6171 6.78511C17.1992 6.05656 16.2683 5.80714 15.5421 6.22915L16.1882 7.34077ZM13.9125 6.02454C13.9125 7.18398 15.1711 7.93183 16.1882 7.34077L15.5421 6.22915C15.3968 6.31361 15.1982 6.20951 15.1982 6.02454H13.9125ZM10.324 4.49997C9.48042 4.49997 8.8033 5.18841 8.8033 6.02453H10.089C10.089 5.89105 10.1979 5.78568 10.324 5.78568V4.49997ZM13.6775 5.78568C13.8036 5.78568 13.9125 5.89107 13.9125 6.02454H15.1982C15.1982 5.18837 14.521 4.49997 13.6775 4.49997V5.78568Z" fill="black"/>
</svg>
