<svg width="49" height="48" viewBox="0 0 49 48" fill="none" xmlns="http://www.w3.org/2000/svg">
<path d="M15.1081 14.9458C13.9452 12.1888 10.7681 10.8962 8.01174 12.0588C5.25543 13.2215 3.96373 16.399 5.12664 19.156L10.9902 33.0574C12.1532 35.8144 15.3303 37.107 18.0866 35.9444C20.843 34.7817 22.1347 31.6042 20.9717 28.8472L15.1081 14.9458Z" fill="#363636"/>
<path d="M15.1081 14.9458C13.9452 12.1888 10.7681 10.8962 8.01174 12.0588C5.25543 13.2215 3.96373 16.399 5.12664 19.156L10.9902 33.0574C12.1532 35.8144 15.3303 37.107 18.0866 35.9444C20.843 34.7817 22.1347 31.6042 20.9717 28.8472L15.1081 14.9458Z" fill="url(#paint0_linear_10253_165494)"/>
<path d="M28.9407 14.9426C27.7777 12.1856 24.6006 10.8931 21.8443 12.0557C19.0879 13.2183 17.7962 16.3958 18.9592 19.1528L24.8228 33.0542C25.9857 35.8113 29.1628 37.1038 31.9192 35.9412C34.6755 34.7786 35.9672 31.6011 34.8043 28.844L28.9407 14.9426Z" fill="#363636"/>
<path d="M28.9407 14.9426C27.7777 12.1856 24.6006 10.8931 21.8443 12.0557C19.0879 13.2183 17.7962 16.3958 18.9592 19.1528L24.8228 33.0542C25.9857 35.8113 29.1628 37.1038 31.9192 35.9412C34.6755 34.7786 35.9672 31.6011 34.8043 28.844L28.9407 14.9426Z" fill="url(#paint1_linear_10253_165494)"/>
<path d="M43.8735 18.853C45.0364 16.0959 43.9056 12.9863 41.3477 11.9074C38.7899 10.8285 35.7736 12.1889 34.6107 14.9459L33.5816 17.3857C32.4186 20.1428 33.5495 23.2524 36.1073 24.3313C38.6652 25.4102 41.6815 24.0498 42.8444 21.2928L43.8735 18.853Z" fill="#363636"/>
<path d="M43.8735 18.853C45.0364 16.0959 43.9056 12.9863 41.3477 11.9074C38.7899 10.8285 35.7736 12.1889 34.6107 14.9459L33.5816 17.3857C32.4186 20.1428 33.5495 23.2524 36.1073 24.3313C38.6652 25.4102 41.6815 24.0498 42.8444 21.2928L43.8735 18.853Z" fill="url(#paint2_linear_10253_165494)"/>
<defs>
<linearGradient id="paint0_linear_10253_165494" x1="8.01174" y1="12.0588" x2="18.0866" y2="35.9444" gradientUnits="userSpaceOnUse">
<stop stop-color="#0B66E4"/>
<stop offset="1" stop-color="#6CA0E8"/>
</linearGradient>
<linearGradient id="paint1_linear_10253_165494" x1="21.8443" y1="12.0557" x2="31.9192" y2="35.9412" gradientUnits="userSpaceOnUse">
<stop stop-color="#0B66E4"/>
<stop offset="1" stop-color="#6CA0E8"/>
</linearGradient>
<linearGradient id="paint2_linear_10253_165494" x1="41.3477" y1="11.9074" x2="36.1073" y2="24.3313" gradientUnits="userSpaceOnUse">
<stop stop-color="#0B66E4"/>
<stop offset="1" stop-color="#6CA0E8"/>
</linearGradient>
</defs>
</svg>
