<svg width="24" height="24" viewBox="0 0 24 24" fill="none" xmlns="http://www.w3.org/2000/svg">
<path d="M17.16 15.1785C17.4539 14.6967 17.6254 14.1332 17.6254 13.5289C17.6254 11.7242 16.1637 10.2625 14.359 10.2625C12.5543 10.2625 11.0925 11.7242 11.0925 13.5289C11.0925 15.3336 12.5543 16.7953 14.359 16.7953C14.9633 16.7953 15.5267 16.6157 16.0085 16.3299C16.768 17.0893 17.3314 17.6528 18.1072 18.4286L19.2586 17.2771C18.0337 16.0522 18.6135 16.6239 17.16 15.1785ZM14.359 15.1621C13.4607 15.1621 12.7258 14.4272 12.7258 13.5289C12.7258 12.6306 13.4607 11.8957 14.359 11.8957C15.2573 11.8957 15.9922 12.6306 15.9922 13.5289C15.9922 14.4272 15.2573 15.1621 14.359 15.1621Z" fill="black"/>
<path d="M9.27794 16.4596H5.74121C5.18893 16.4596 4.74121 16.0119 4.74121 15.4596V6.57141C4.74121 6.01913 5.18893 5.57141 5.74121 5.57141H18.2588C18.811 5.57141 19.2588 6.01913 19.2588 6.57141V10.1853" stroke="black" stroke-width="1.5"/>
</svg>
