<svg width="28" height="28" viewBox="0 0 28 28" fill="none" xmlns="http://www.w3.org/2000/svg">
<rect x="5" y="5" width="18" height="18" rx="9" stroke="black" stroke-width="1.5"/>
<path d="M13.5689 18.8V18.92H13.6889H14.3333H14.4533V18.8V18.0642C15.2697 17.9976 15.9221 17.7417 16.3788 17.3442C16.8581 16.927 17.1141 16.3604 17.12 15.7177L17.12 15.7156C17.1141 14.9779 16.7688 14.4629 16.2943 14.1067C15.8252 13.7547 15.2295 13.5567 14.707 13.4386L14.4533 13.3683V11.2122C15.1117 11.3174 15.5258 11.6771 15.5807 12.2006L15.5919 12.3081H15.7H16.8889H17.0123L17.0088 12.1847C16.974 10.9556 15.9262 10.0802 14.4533 9.94719V9.20001V9.08001H14.3333H13.6889H13.5689V9.20001V9.96131C12.1611 10.1338 11.0911 10.9895 11.0911 12.2623C11.0911 12.8322 11.3089 13.2878 11.6968 13.6422C12.0808 13.993 12.6267 14.2407 13.2806 14.4128L13.2817 14.4131L13.5689 14.4855V16.7884C13.246 16.7391 12.9674 16.6314 12.7584 16.4689C12.5242 16.2867 12.372 16.032 12.3417 15.6952L12.3319 15.586H12.2222H11H10.8732L10.8802 15.7126C10.918 16.401 11.2018 16.9704 11.6905 17.3782C12.1546 17.7656 12.7957 18.001 13.5689 18.0642V18.8ZM13.5689 13.1416C13.3272 13.0677 13.0922 12.9707 12.9088 12.8374C12.6911 12.6791 12.5533 12.476 12.5533 12.1987C12.5533 11.7409 12.9104 11.3528 13.5689 11.2267V13.1416ZM15.2976 15.0594C15.532 15.2196 15.6635 15.4177 15.6689 15.6954C15.6587 16.2477 15.2008 16.6699 14.4533 16.7878V14.7082C14.7968 14.8058 15.0863 14.915 15.2976 15.0594Z" fill="black" stroke="black" stroke-width="0.24"/>
</svg>
