<svg width="28" height="28" viewBox="0 0 28 28" fill="none" xmlns="http://www.w3.org/2000/svg">
<path d="M18 22H6V6H18V15.5" stroke="black" stroke-width="1.5"/>
<path d="M10 22H18H22V9H18" stroke="black" stroke-width="1.5"/>
<path d="M9 9H15" stroke="black" stroke-width="1.5"/>
<path d="M9 9H15" stroke="black" stroke-width="1.5"/>
<path d="M9 12H13" stroke="black" stroke-width="1.5"/>
<path d="M15.772 20.3125V16H18.6133V16.7386H16.6655V17.7869H18.4286V18.5256H16.6655V20.3125H15.772Z" fill="black"/>
<path d="M13.1667 20.3125H11.6478V16H13.1845C14.4831 16 15.2753 16.8101 15.2753 18.1503C15.2753 19.5024 14.4831 20.3125 13.1667 20.3125ZM12.5412 19.5441H13.1309C13.9529 19.5441 14.3818 19.1152 14.3818 18.1503C14.3818 17.1913 13.9529 16.7684 13.1369 16.7684H12.5412V19.5441Z" fill="black"/>
<path d="M8 20.3125V16H9.69164C10.6745 16 11.2344 16.6016 11.2344 17.4534C11.2344 18.3171 10.6626 18.9068 9.66782 18.9068H8.89347V20.3125H8ZM8.89347 18.186H9.52486C10.055 18.186 10.3111 17.8882 10.3111 17.4534C10.3111 17.0245 10.055 16.7326 9.52486 16.7326H8.89347V18.186Z" fill="black"/>
</svg>
