<svg width="28" height="28" viewBox="0 0 28 28" fill="none" xmlns="http://www.w3.org/2000/svg">
<path d="M21.1111 17.1111C20 17.1111 18.9333 16.9333 17.9378 16.6044C17.8489 16.5778 17.7511 16.56 17.6622 16.56C17.4311 16.56 17.2089 16.6489 17.0311 16.8178L15.0756 18.7733C12.56 17.4933 10.4978 15.44 9.21778 12.9244L11.1733 10.96C11.4222 10.72 11.4933 10.3733 11.3956 10.0622C11.0667 9.06667 10.8889 8 10.8889 6.88889C10.8889 6.4 10.4889 6 10 6H6.88889C6.4 6 6 6.4 6 6.88889C6 15.2356 12.7644 22 21.1111 22C21.6 22 22 21.6 22 21.1111V18C22 17.5111 21.6 17.1111 21.1111 17.1111ZM7.80444 7.77778H9.13778C9.2 8.56 9.33333 9.33333 9.54667 10.08L8.48 11.1556C8.11556 10.08 7.88444 8.95111 7.80444 7.77778ZM20.2222 20.1956C19.0489 20.1156 17.9111 19.8844 16.8444 19.52L17.9111 18.4533C18.6667 18.6667 19.44 18.8 20.2222 18.8533V20.1956Z" fill="black"/>
<path d="M15 8L18 11L22 7" stroke="black" stroke-width="1.5"/>
</svg>
