<svg width="24" height="24" viewBox="0 0 24 24" fill="none" xmlns="http://www.w3.org/2000/svg">
<path d="M11.2381 9.71425H12.7619V11.2381H11.2381V9.71425ZM14.2857 9.71425H15.8095V11.2381H14.2857V9.71425ZM18.0952 14.6666C17.1428 14.6666 16.2285 14.5143 15.3752 14.2323C15.299 14.2095 15.2152 14.1943 15.139 14.1943C14.9409 14.1943 14.7504 14.2704 14.5981 14.4152L12.9219 16.0914C10.7657 14.9943 8.99806 13.2343 7.90092 11.0781L9.57711 9.39425C9.79044 9.18854 9.85139 8.89139 9.76758 8.62473C9.48568 7.77139 9.3333 6.85711 9.3333 5.90473C9.3333 5.48568 8.99044 5.14282 8.57139 5.14282H5.90473C5.48568 5.14282 5.14282 5.48568 5.14282 5.90473C5.14282 13.059 10.9409 18.8571 18.0952 18.8571C18.5143 18.8571 18.8571 18.5143 18.8571 18.0952V15.4285C18.8571 15.0095 18.5143 14.6666 18.0952 14.6666ZM6.68949 6.66663H7.83235C7.88568 7.33711 7.99996 7.99997 8.18282 8.63997L7.26854 9.56187C6.95616 8.63997 6.75806 7.67235 6.68949 6.66663ZM17.3333 17.3104C16.3276 17.2419 15.3523 17.0438 14.4381 16.7314L15.3523 15.8171C16 16 16.6628 16.1143 17.3333 16.16V17.3104ZM17.3333 9.71425H18.8571V11.2381H17.3333V9.71425Z" fill="black"/>
</svg>
