<svg width="28" height="28" viewBox="0 0 28 28" fill="none" xmlns="http://www.w3.org/2000/svg">
<path d="M14 15.5L14 23.5" stroke="black" stroke-width="1.5"/>
<mask id="path-2-inside-1_8012_133715" fill="white">
<path fill-rule="evenodd" clip-rule="evenodd" d="M10.3332 4.5H17.6665V6.9443H16.648L17.6032 12.6759H18.8888V15.5H9.11116V12.6759H10.3965L11.3518 6.9443H10.3332V4.5Z"/>
</mask>
<path d="M17.6665 4.5H19.1665V3H17.6665V4.5ZM10.3332 4.5V3H8.83324V4.5H10.3332ZM17.6665 6.9443V8.4443H19.1665V6.9443H17.6665ZM16.648 6.9443V5.4443H14.8773L15.1684 7.1909L16.648 6.9443ZM17.6032 12.6759L16.1237 12.9225L16.3326 14.1759H17.6032V12.6759ZM18.8888 12.6759H20.3888V11.1759H18.8888V12.6759ZM18.8888 15.5V17H20.3888V15.5H18.8888ZM9.11116 15.5H7.61116V17H9.11116V15.5ZM9.11116 12.6759V11.1759H7.61116V12.6759H9.11116ZM10.3965 12.6759V14.1759H11.6672L11.8761 12.9225L10.3965 12.6759ZM11.3518 6.9443L12.8314 7.1909L13.1225 5.4443H11.3518V6.9443ZM10.3332 6.9443H8.83324V8.4443H10.3332V6.9443ZM17.6665 3H10.3332V6H17.6665V3ZM19.1665 6.9443V4.5H16.1665V6.9443H19.1665ZM16.648 8.4443H17.6665V5.4443H16.648V8.4443ZM15.1684 7.1909L16.1237 12.9225L19.0828 12.4293L18.1276 6.69771L15.1684 7.1909ZM18.8888 11.1759H17.6032V14.1759H18.8888V11.1759ZM20.3888 15.5V12.6759H17.3888V15.5H20.3888ZM9.11116 17H18.8888V14H9.11116V17ZM7.61116 12.6759V15.5H10.6112V12.6759H7.61116ZM10.3965 11.1759H9.11116V14.1759H10.3965V11.1759ZM11.8761 12.9225L12.8314 7.1909L9.87218 6.6977L8.91691 12.4293L11.8761 12.9225ZM10.3332 8.4443H11.3518V5.4443H10.3332V8.4443ZM8.83324 4.5V6.9443H11.8332V4.5H8.83324Z" fill="black" mask="url(#path-2-inside-1_8012_133715)"/>
</svg>
