<svg width="28" height="28" viewBox="0 0 28 28" fill="none" xmlns="http://www.w3.org/2000/svg">
<path d="M15.3029 18.2417V18.2417C15.3029 20.0406 13.8446 21.4988 12.0457 21.4988H8.13715C6.33828 21.4988 4.88 20.0406 4.88 18.2417V18.2417C4.88 16.4428 6.33828 14.9846 8.13715 14.9846H10.0914" stroke="black" stroke-width="1.71"/>
<path d="M12.6971 18.2417V18.2417C12.6971 16.4428 14.1554 14.9846 15.9543 14.9846L19.8629 14.9846C21.6617 14.9846 23.12 16.4428 23.12 18.2417V18.2417C23.12 20.0406 21.6617 21.4988 19.8629 21.4988L17.9086 21.4988" stroke="black" stroke-width="1.71"/>
<path fill-rule="evenodd" clip-rule="evenodd" d="M11.1264 7.0153C11.8549 6.32986 13.036 6.32986 13.7645 7.0153L14 7.23685L14.2355 7.0153C14.964 6.32986 16.1451 6.32986 16.8736 7.0153C17.6021 7.70074 17.6021 9.11456 16.8736 9.8L14.0731 12.1401C14.0308 12.1755 13.9692 12.1755 13.9269 12.1401L11.1264 9.8C10.3979 9.11456 10.3979 7.70074 11.1264 7.0153Z" fill="black"/>
</svg>
