<svg width="24" height="24" viewBox="0 0 24 24" fill="none" xmlns="http://www.w3.org/2000/svg">
<ellipse cx="12.0008" cy="11.9999" rx="2.55459" ry="2.57143" stroke="black" stroke-width="1.5"/>
<path d="M5.25973 10.0385L4.60914 9.66536L5.25973 10.0385ZM5.2598 13.9613L4.60922 14.3344L5.2598 13.9613ZM17.0593 16.8949L17.7099 17.2681L17.0593 16.8949ZM18.7419 13.9613L18.0914 13.5881L18.7419 13.9613ZM17.0594 7.10496L17.71 6.7318L17.0594 7.10496ZM13.6775 4.39282H10.324V5.89282H13.6775V4.39282ZM19.3926 9.66536L17.71 6.7318L16.4088 7.47811L18.0914 10.4117L19.3926 9.66536ZM18.0914 13.5881L16.4087 16.5218L17.7099 17.2681L19.3925 14.3344L18.0914 13.5881ZM10.324 19.6071H13.6775V18.1071H10.324V19.6071ZM4.60922 14.3344L6.29191 17.2682L7.59307 16.5218L5.91038 13.5881L4.60922 14.3344ZM5.91031 10.4117L7.59296 7.47802L6.29179 6.73172L4.60914 9.66536L5.91031 10.4117ZM7.75964 7.43336C8.84933 8.06664 10.1962 7.26501 10.1962 6.02453H8.69616C8.69616 6.07328 8.67407 6.1107 8.63196 6.13522C8.61061 6.14764 8.58927 6.15289 8.57156 6.15324C8.55628 6.15354 8.53761 6.15057 8.51334 6.13646L7.75964 7.43336ZM7.59296 7.47802C7.62653 7.4195 7.70131 7.39946 7.75964 7.43336L8.51334 6.13646C7.73587 5.68463 6.7392 5.95168 6.29179 6.73172L7.59296 7.47802ZM5.95809 10.5899C5.89583 10.5537 5.87451 10.4741 5.91031 10.4117L4.60914 9.66536C4.1628 10.4435 4.42881 11.4361 5.20439 11.8868L5.95809 10.5899ZM5.95813 13.4099C7.04003 12.7812 7.03988 11.2186 5.95809 10.5899L5.20439 11.8868C5.29123 11.9373 5.29116 12.0627 5.20443 12.1131L5.95813 13.4099ZM5.91038 13.5881C5.87458 13.5257 5.89591 13.4461 5.95813 13.4099L5.20443 12.1131C4.42884 12.5638 4.1629 13.5563 4.60922 14.3344L5.91038 13.5881ZM7.75971 16.5665C7.70139 16.6004 7.62663 16.5804 7.59307 16.5218L6.29191 17.2682C6.7393 18.0482 7.73595 18.3152 8.5134 17.8634L7.75971 16.5665ZM10.1962 17.9754C10.1962 16.735 8.84944 15.9332 7.75971 16.5665L8.5134 17.8634C8.53765 17.8493 8.5563 17.8463 8.57157 17.8466C8.58927 17.847 8.6106 17.8522 8.63195 17.8647C8.67407 17.8892 8.69616 17.9266 8.69616 17.9754H10.1962ZM10.324 18.1071C10.2577 18.1071 10.1962 18.0503 10.1962 17.9754H8.69616C8.69616 18.87 9.4206 19.6071 10.324 19.6071V18.1071ZM13.8053 17.9753C13.8053 18.0503 13.7438 18.1071 13.6775 18.1071V19.6071C14.5808 19.6071 15.3053 18.87 15.3053 17.9753H13.8053ZM16.2419 16.5664C15.1522 15.9331 13.8053 16.7348 13.8053 17.9753H15.3053C15.3053 17.9266 15.3274 17.8891 15.3696 17.8646C15.3909 17.8522 15.4123 17.8469 15.43 17.8466C15.4453 17.8463 15.464 17.8492 15.4882 17.8633L16.2419 16.5664ZM16.4087 16.5218C16.3751 16.5803 16.3003 16.6004 16.2419 16.5664L15.4882 17.8633C16.2658 18.3152 17.2625 18.0481 17.7099 17.2681L16.4087 16.5218ZM18.0436 13.4099C18.1058 13.4461 18.1272 13.5257 18.0914 13.5881L19.3925 14.3344C19.8388 13.5563 19.5729 12.5638 18.7973 12.1131L18.0436 13.4099ZM18.0436 10.5899C16.9619 11.2186 16.9617 12.7812 18.0436 13.4099L18.7973 12.1131C18.7106 12.0627 18.7105 11.9373 18.7973 11.8868L18.0436 10.5899ZM18.0914 10.4117C18.1272 10.4741 18.1059 10.5537 18.0436 10.5899L18.7973 11.8868C19.5729 11.4361 19.8389 10.4435 19.3926 9.66536L18.0914 10.4117ZM16.242 7.43341C16.3004 7.39948 16.3752 7.41953 16.4088 7.47811L17.71 6.7318C17.2626 5.95172 16.2658 5.68465 15.4883 6.13651L16.242 7.43341ZM13.8053 6.02454C13.8053 7.26518 15.1523 8.06668 16.242 7.43341L15.4883 6.13651C15.464 6.15063 15.4453 6.15361 15.43 6.15331C15.4123 6.15296 15.3909 6.14771 15.3696 6.13528C15.3274 6.11076 15.3053 6.07333 15.3053 6.02454H13.8053ZM10.324 4.39282C9.42063 4.39282 8.69616 5.12985 8.69616 6.02453H10.1962C10.1962 5.94961 10.2577 5.89282 10.324 5.89282V4.39282ZM13.6775 5.89282C13.7438 5.89282 13.8053 5.94963 13.8053 6.02454H15.3053C15.3053 5.12981 14.5808 4.39282 13.6775 4.39282V5.89282Z" fill="black"/>
</svg>
