<svg width="43" height="48" viewBox="0 0 43 48" fill="none" xmlns="http://www.w3.org/2000/svg">
<g clip-path="url(#clip0_360_1209)">
<path d="M42.2069 24.0043C42.2069 21.2137 38.7054 18.5691 33.3371 16.9291C34.5759 11.4682 34.0253 7.12346 31.5993 5.73247C31.0401 5.40618 30.3862 5.25163 29.6722 5.25163V7.16639C30.0679 7.16639 30.3862 7.24367 30.6529 7.38964C31.8229 8.05938 32.3305 10.6095 31.9348 13.8895C31.8401 14.6967 31.6853 15.5467 31.496 16.4139C29.8098 16.0018 27.9687 15.6841 26.033 15.478C24.8716 13.8895 23.6672 12.447 22.4541 11.1848C25.2588 8.58314 27.8913 7.15781 29.6808 7.15781V5.24304C27.3149 5.24304 24.2178 6.92597 21.0862 9.84534C17.9547 6.94315 14.8576 5.27739 12.4917 5.27739V7.19215C14.2726 7.19215 16.9137 8.6089 19.7183 11.1934C18.5139 12.4556 17.3095 13.8895 16.1653 15.478C14.221 15.6841 12.3799 16.0018 10.6937 16.4225C10.4958 15.5639 10.3496 14.731 10.2463 13.9325C9.84197 10.6525 10.3409 8.10231 11.5024 7.42398C11.7605 7.26943 12.096 7.20074 12.4917 7.20074V5.28597C11.7691 5.28597 11.1152 5.44053 10.5474 5.76681C8.12995 7.15781 7.58795 11.4939 8.8354 16.9377C3.48426 18.5863 0 21.2223 0 24.0043C0 26.7949 3.50147 29.4395 8.86981 31.0795C7.63097 36.5404 8.18157 40.8851 10.6076 42.2761C11.1668 42.6024 11.8207 42.757 12.5433 42.757C14.9092 42.757 18.0063 41.074 21.1379 38.1546C24.2694 41.0568 27.3665 42.7226 29.7324 42.7226C30.455 42.7226 31.1089 42.5681 31.6767 42.2418C34.0942 40.8508 34.6362 36.5147 33.3887 31.0709C38.7226 29.4309 42.2069 26.7863 42.2069 24.0043ZM31.0056 18.2772C30.6873 19.3848 30.2916 20.5268 29.8442 21.6688C29.4915 20.9819 29.1216 20.295 28.7172 19.6081C28.3215 18.9212 27.8999 18.2514 27.4784 17.5988C28.7 17.7792 29.8786 18.0024 31.0056 18.2772ZM27.0654 27.4217C26.3944 28.5808 25.7061 29.6799 24.9921 30.7017C23.7102 30.8133 22.4111 30.8734 21.1034 30.8734C19.8044 30.8734 18.5053 30.8133 17.232 30.7103C16.518 29.6885 15.8211 28.598 15.1501 27.4474C14.4963 26.3226 13.9026 25.1806 13.3606 24.03C13.894 22.8795 14.4963 21.7289 15.1415 20.6041C15.8125 19.4449 16.5008 18.3459 17.2148 17.3241C18.4967 17.2125 19.7958 17.1524 21.1034 17.1524C22.4025 17.1524 23.7016 17.2125 24.9749 17.3155C25.6889 18.3373 26.3858 19.4277 27.0568 20.5783C27.7106 21.7031 28.3043 22.8451 28.8463 23.9957C28.3043 25.1463 27.7106 26.2969 27.0654 27.4217ZM29.8442 26.3054C30.3088 27.456 30.7045 28.6066 31.0314 29.7228C29.9044 29.9976 28.7172 30.2294 27.487 30.4097C27.9085 29.7486 28.3301 29.0703 28.7258 28.3748C29.1216 27.6878 29.4915 26.9924 29.8442 26.3054ZM21.1207 35.4671C20.3206 34.6428 19.5205 33.7241 18.729 32.7195C19.5033 32.7538 20.2948 32.7796 21.0948 32.7796C21.9035 32.7796 22.7036 32.7624 23.4865 32.7195C22.7122 33.7241 21.9121 34.6428 21.1207 35.4671ZM14.7199 30.4097C13.4983 30.2294 12.3197 30.0062 11.1927 29.7314C11.511 28.6238 11.9067 27.4818 12.3541 26.3398C12.7068 27.0267 13.0767 27.7136 13.4811 28.4005C13.8854 29.0874 14.2984 29.7572 14.7199 30.4097ZM21.0776 12.5415C21.8777 13.3658 22.6778 14.2845 23.4693 15.2891C22.695 15.2548 21.9035 15.229 21.1034 15.229C20.2948 15.229 19.4947 15.2462 18.7118 15.2891C19.4861 14.2845 20.2862 13.3658 21.0776 12.5415ZM14.7113 17.5988C14.2898 18.26 13.8682 18.9383 13.4725 19.6338C13.0767 20.3207 12.7068 21.0076 12.3541 21.6946C11.8895 20.544 11.4938 19.3934 11.1668 18.2772C12.2939 18.011 13.4811 17.7792 14.7113 17.5988ZM6.92551 28.349C3.88001 27.0525 1.90989 25.3524 1.90989 24.0043C1.90989 22.6562 3.88001 20.9475 6.92551 19.6596C7.66538 19.3419 8.47407 19.0585 9.30857 18.7924C9.79895 20.4753 10.4442 22.2269 11.2443 24.0215C10.4528 25.8074 9.81616 27.5505 9.33438 29.2248C8.48268 28.9586 7.67398 28.6667 6.92551 28.349ZM11.554 40.6189C10.384 39.9492 9.87638 37.399 10.2721 34.119C10.3668 33.3119 10.5216 32.4619 10.7109 31.5947C12.3971 32.0068 14.2382 32.3245 16.1739 32.5306C17.3353 34.119 18.5397 35.5616 19.7528 36.8238C16.9481 39.4254 14.3156 40.8508 12.5261 40.8508C12.139 40.8422 11.8121 40.7649 11.554 40.6189ZM31.9606 34.0761C32.3649 37.3561 31.8659 39.9063 30.7045 40.5846C30.4464 40.7392 30.1109 40.8078 29.7152 40.8078C27.9343 40.8078 25.2932 39.3911 22.4886 36.8066C23.693 35.5444 24.8974 34.1105 26.0416 32.522C27.9859 32.3159 29.827 31.9982 31.5132 31.5775C31.7111 32.4447 31.8659 33.2776 31.9606 34.0761ZM35.2728 28.349C34.5329 28.6667 33.7242 28.95 32.8897 29.2162C32.3993 27.5333 31.7541 25.7817 30.954 23.9871C31.7455 22.2011 32.3821 20.4581 32.8639 18.7838C33.7156 19.0499 34.5243 19.3419 35.2814 19.6596C38.3269 20.9561 40.297 22.6562 40.297 24.0043C40.2884 25.3524 38.3183 27.061 35.2728 28.349Z" fill="#61DAFB"/>
<path d="M21.0949 27.9283C23.2662 27.9283 25.0265 26.1715 25.0265 24.0043C25.0265 21.8371 23.2662 20.0803 21.0949 20.0803C18.9235 20.0803 17.1632 21.8371 17.1632 24.0043C17.1632 26.1715 18.9235 27.9283 21.0949 27.9283Z" fill="#61DAFB"/>
</g>
<defs>
<clipPath id="clip0_360_1209">
<rect width="42.2069" height="48" fill="white"/>
</clipPath>
</defs>
</svg>
