<svg width="200" height="36" viewBox="0 0 200 36" fill="none" xmlns="http://www.w3.org/2000/svg">
<path d="M21.0399 10.8964C19.877 8.13931 16.6998 6.84678 13.9435 8.00939C11.1872 9.172 9.89549 12.3495 11.0584 15.1065L16.922 29.0079C18.0849 31.765 21.2621 33.0575 24.0184 31.8949C26.7747 30.7323 28.0664 27.5548 26.9035 24.7977L21.0399 10.8964Z" fill="url(#paint0_linear_11467_354551)"/>
<path d="M34.8724 10.8932C33.7095 8.13614 30.5323 6.8436 27.776 8.00622C25.0197 9.16883 23.728 12.3463 24.8909 15.1034L30.7545 29.0048C31.9174 31.7618 35.0946 33.0543 37.8509 31.8917C40.6072 30.7291 41.8989 27.5516 40.736 24.7946L34.8724 10.8932Z" fill="url(#paint1_linear_11467_354551)"/>
<path d="M49.8055 14.8035C50.9684 12.0465 49.8376 8.93684 47.2797 7.85793C44.7219 6.77903 41.7056 8.13942 40.5427 10.8965L39.5136 13.3363C38.3506 16.0933 39.4815 19.2029 42.0393 20.2818C44.5972 21.3608 47.6135 20.0004 48.7764 17.2433L49.8055 14.8035Z" fill="url(#paint2_linear_11467_354551)"/>
<path d="M79.3787 13.0911L75.4621 28.1132H71.0318L68.6335 18.2252L66.1502 28.1132H61.7199L57.9111 13.0911H61.8277L63.9904 24.0264L66.6667 13.0911H70.6912L73.2597 24.0264L75.4422 13.0911H79.3787Z" fill="#363636"/>
<path d="M91.7699 23.0216H83.4883C83.5451 23.7623 83.7835 24.3299 84.2064 24.7244C84.6264 25.1161 85.1429 25.3119 85.7588 25.3119C86.6727 25.3119 87.3056 24.9259 87.6632 24.1568H91.5571C91.3584 24.943 90.998 25.6468 90.4758 26.2769C89.9536 26.9041 89.3008 27.3979 88.5175 27.7527C87.7313 28.1103 86.8543 28.2891 85.8837 28.2891C84.7144 28.2891 83.6728 28.0393 82.7589 27.5398C81.8451 27.0403 81.1327 26.328 80.619 25.3999C80.1053 24.4718 79.8499 23.3877 79.8499 22.1474C79.8499 20.9072 80.1024 19.823 80.6105 18.8949C81.1157 17.9669 81.828 17.2545 82.7391 16.755C83.6529 16.2555 84.7002 16.0057 85.8837 16.0057C87.0672 16.0057 88.0662 16.2498 88.9659 16.7323C89.8656 17.2176 90.5666 17.9101 91.0746 18.8069C91.5798 19.7066 91.8352 20.7539 91.8352 21.9516C91.8352 22.295 91.8125 22.6498 91.7699 23.0216ZM88.0889 20.9895C88.0889 20.3622 87.876 19.8627 87.4475 19.4909C87.0189 19.1191 86.4854 18.9347 85.8411 18.9347C85.1969 18.9347 84.7115 19.1135 84.2887 19.4682C83.8686 19.8258 83.6075 20.331 83.5082 20.9866H88.0889V20.9895Z" fill="#363636"/>
<path d="M93.0868 18.8925C93.5494 17.9644 94.1823 17.252 94.9798 16.7525C95.7774 16.253 96.6714 16.0033 97.6562 16.0033C98.4395 16.0033 99.1576 16.1679 99.8075 16.4943C100.457 16.8235 100.965 17.2634 101.337 17.8197V12.2796H104.996V28.1163H101.337V26.405C100.994 26.9754 100.506 27.4324 99.8699 27.7758C99.2342 28.1192 98.4963 28.2895 97.6562 28.2895C96.6714 28.2895 95.7802 28.0369 94.9798 27.5289C94.1795 27.0237 93.5494 26.3028 93.0868 25.3662C92.6242 24.4325 92.3915 23.3511 92.3915 22.1251C92.3915 20.899 92.6242 19.8205 93.0868 18.8925ZM100.577 19.9823C100.069 19.4544 99.4527 19.1905 98.7262 19.1905C97.9996 19.1905 97.3809 19.4516 96.8757 19.9709C96.3705 20.4932 96.1151 21.2084 96.1151 22.1222C96.1151 23.0361 96.3677 23.7598 96.8757 24.2934C97.3809 24.8298 97.9996 25.0966 98.7262 25.0966C99.4527 25.0966 100.071 24.8326 100.577 24.3048C101.082 23.7769 101.337 23.056 101.337 22.1421C101.337 21.2282 101.085 20.5102 100.577 19.9795V19.9823Z" fill="#363636"/>
<path d="M106.974 18.8925C107.436 17.9644 108.069 17.252 108.867 16.7525C109.664 16.253 110.558 16.0033 111.543 16.0033C112.326 16.0033 113.044 16.1679 113.694 16.4943C114.344 16.8235 114.852 17.2634 115.224 17.8197V12.2796H118.882V28.1163H115.224V26.405C114.881 26.9754 114.393 27.4324 113.757 27.7758C113.121 28.1192 112.383 28.2895 111.543 28.2895C110.558 28.2895 109.667 28.0369 108.867 27.5289C108.066 27.0237 107.436 26.3028 106.974 25.3662C106.511 24.4325 106.278 23.3511 106.278 22.1251C106.278 20.899 106.511 19.8205 106.974 18.8925ZM114.466 19.9823C113.958 19.4544 113.342 19.1905 112.616 19.1905C111.889 19.1905 111.271 19.4516 110.765 19.9709C110.26 20.4932 110.005 21.2084 110.005 22.1222C110.005 23.0361 110.257 23.7598 110.765 24.2934C111.271 24.8298 111.889 25.0966 112.616 25.0966C113.342 25.0966 113.961 24.8326 114.466 24.3048C114.971 23.7769 115.227 23.056 115.227 22.1421C115.227 21.2282 114.974 20.5102 114.466 19.9795V19.9823Z" fill="#363636"/>
<path d="M121.164 14.3657C120.758 13.9882 120.554 13.5199 120.554 12.9637C120.554 12.4074 120.758 11.9192 121.164 11.5418C121.57 11.1643 122.095 10.9741 122.737 10.9741C123.378 10.9741 123.88 11.1643 124.289 11.5418C124.695 11.9192 124.899 12.3932 124.899 12.9637C124.899 13.5341 124.695 13.9882 124.289 14.3657C123.883 14.7432 123.364 14.9333 122.737 14.9333C122.109 14.9333 121.57 14.7432 121.164 14.3657ZM124.556 16.1736V28.1164H120.897V16.1736H124.556Z" fill="#363636"/>
<path d="M137.191 17.4051C138.026 18.3105 138.443 19.5564 138.443 21.1401V28.1162H134.804V21.6311C134.804 20.8335 134.597 20.212 134.183 19.7693C133.769 19.3265 133.212 19.1051 132.514 19.1051C131.816 19.1051 131.26 19.3265 130.845 19.7693C130.431 20.212 130.224 20.8335 130.224 21.6311V28.1162H126.565V16.1734H130.224V17.757C130.596 17.2291 131.095 16.8119 131.722 16.5054C132.35 16.1989 133.056 16.0456 133.84 16.0456C135.239 16.0456 136.354 16.4997 137.189 17.4051H137.191Z" fill="#363636"/>
<path d="M147.102 16.517C147.738 16.8604 148.226 17.3088 148.569 17.8651V16.1736H152.227V28.0937C152.227 29.192 152.009 30.1882 151.575 31.0794C151.141 31.9705 150.476 32.6801 149.585 33.2079C148.694 33.7358 147.584 33.9998 146.256 33.9998C144.488 33.9998 143.052 33.5826 141.954 32.7482C140.855 31.9138 140.228 30.7814 140.072 29.3566H143.688C143.801 29.8136 144.074 30.174 144.502 30.4379C144.931 30.7019 145.459 30.8324 146.086 30.8324C146.841 30.8324 147.445 30.6139 147.894 30.1797C148.342 29.7454 148.569 29.0501 148.569 28.0937V26.4021C148.212 26.9584 147.721 27.4125 147.093 27.7616C146.466 28.1107 145.731 28.2866 144.888 28.2866C143.903 28.2866 143.012 28.0341 142.212 27.526C141.411 27.0208 140.781 26.3 140.319 25.3634C139.856 24.4296 139.623 23.3483 139.623 22.1223C139.623 20.8962 139.856 19.8177 140.319 18.8896C140.781 17.9616 141.414 17.2492 142.212 16.7497C143.009 16.2502 143.903 16.0004 144.888 16.0004C145.728 16.0004 146.469 16.1707 147.102 16.5141V16.517ZM147.806 19.9823C147.298 19.4544 146.682 19.1905 145.955 19.1905C145.229 19.1905 144.61 19.4516 144.105 19.971C143.6 20.4932 143.344 21.2084 143.344 22.1223C143.344 23.0361 143.597 23.7598 144.105 24.2934C144.61 24.8298 145.229 25.0966 145.955 25.0966C146.682 25.0966 147.301 24.8327 147.806 24.3048C148.311 23.7769 148.566 23.056 148.566 22.1421C148.566 21.2282 148.314 20.5102 147.806 19.9795V19.9823Z" fill="#363636"/>
<path d="M168.984 20.3141C168.584 21.035 167.971 21.6168 167.145 22.0595C166.316 22.5023 165.289 22.7237 164.062 22.7237H161.795V28.1161H158.136V13.0911H164.065C165.263 13.0911 166.276 13.2983 167.105 13.7126C167.934 14.127 168.552 14.6975 168.967 15.424C169.381 16.1506 169.588 16.985 169.588 17.9272C169.588 18.7985 169.39 19.5932 168.989 20.3141H168.984ZM165.345 19.3208C165.689 18.9915 165.859 18.5289 165.859 17.9301C165.859 17.3312 165.689 16.8686 165.345 16.5394C165.002 16.2102 164.483 16.0484 163.784 16.0484H161.795V19.8146H163.784C164.483 19.8146 165.005 19.65 165.345 19.3236V19.3208Z" fill="#363636"/>
<path d="M176.108 16.6133C176.749 16.2358 177.464 16.0456 178.248 16.0456V19.9197H177.243C176.329 19.9197 175.645 20.1155 175.188 20.5072C174.731 20.8988 174.504 21.5885 174.504 22.5733V28.1162H170.846V16.1734H174.504V18.1629C174.933 17.5073 175.466 16.9907 176.11 16.6104L176.108 16.6133Z" fill="#363636"/>
<path d="M181.642 27.5372C180.708 27.0377 179.973 26.3253 179.436 25.3972C178.9 24.4692 178.633 23.385 178.633 22.1448C178.633 20.9045 178.903 19.8374 179.448 18.9036C179.99 17.9699 180.731 17.2518 181.673 16.7523C182.615 16.2528 183.671 16.0031 184.84 16.0031C186.01 16.0031 187.065 16.2528 188.008 16.7523C188.95 17.2518 189.691 17.9699 190.233 18.9036C190.775 19.8374 191.047 20.9187 191.047 22.1448C191.047 23.3708 190.772 24.4522 190.224 25.3859C189.674 26.3196 188.924 27.0377 187.976 27.5372C187.028 28.0367 185.967 28.2865 184.798 28.2865C183.628 28.2865 182.575 28.0367 181.642 27.5372ZM186.583 24.35C187.074 23.8363 187.321 23.1012 187.321 22.1448C187.321 21.1883 187.082 20.4532 186.603 19.9395C186.126 19.4258 185.536 19.1704 184.837 19.1704C184.139 19.1704 183.532 19.423 183.061 19.931C182.59 20.4391 182.354 21.177 182.354 22.1448C182.354 23.1126 182.587 23.8363 183.049 24.35C183.512 24.8637 184.094 25.1191 184.795 25.1191C185.496 25.1191 186.089 24.8608 186.583 24.35Z" fill="#363636"/>
<defs>
<linearGradient id="paint0_linear_11467_354551" x1="13.9435" y1="8.00939" x2="24.0184" y2="31.8949" gradientUnits="userSpaceOnUse">
<stop stop-color="#0B66E4"/>
<stop offset="1" stop-color="#6CA0E8"/>
</linearGradient>
<linearGradient id="paint1_linear_11467_354551" x1="27.776" y1="8.00622" x2="37.8509" y2="31.8917" gradientUnits="userSpaceOnUse">
<stop stop-color="#0B66E4"/>
<stop offset="1" stop-color="#6CA0E8"/>
</linearGradient>
<linearGradient id="paint2_linear_11467_354551" x1="47.2797" y1="7.85793" x2="42.0393" y2="20.2818" gradientUnits="userSpaceOnUse">
<stop stop-color="#0B66E4"/>
<stop offset="1" stop-color="#6CA0E8"/>
</linearGradient>
</defs>
</svg>
